REM DIRINDEX 1\2,1\3,1\4,1\5
REM DIRNAME "folder01","folder02","folder03","folder04","folder05"
TITLE ""
FILE "1Q_t_1788-1800.mp3" MP3
  TRACK 01 AUDIO
    TITLE "3:cjc172_6360"
    INDEX 01 00:00:00
  TRACK 02 AUDIO
    TITLE "0:"
    INDEX 01 00:01:23
  TRACK 03 AUDIO
    TITLE "4:cjc172_6361"
    INDEX 01 00:01:33
  TRACK 04 AUDIO
    TITLE "0:"
    INDEX 01 00:04:49
  TRACK 05 AUDIO
    TITLE "5:cjc172_6362"
    INDEX 01 00:04:59
  TRACK 06 AUDIO
    TITLE "0:"
    INDEX 01 00:10:34
  TRACK 07 AUDIO
    TITLE "3:cjc172_6363"
    INDEX 01 00:11:06
  TRACK 08 AUDIO
    TITLE "0:"
    INDEX 01 00:12:12
  TRACK 09 AUDIO
    TITLE "4:cjc172_6364"
    INDEX 01 00:12:21
  TRACK 10 AUDIO
    TITLE "0:"
    INDEX 01 00:14:44
  TRACK 11 AUDIO
    TITLE "5:cjc172_6365"
    INDEX 01 00:14:54
  TRACK 12 AUDIO
    TITLE "0:"
    INDEX 01 00:21:03
  TRACK 13 AUDIO
    TITLE "3:cjc172_6366"
    INDEX 01 00:21:48
  TRACK 14 AUDIO
    TITLE "0:"
    INDEX 01 00:22:59
  TRACK 15 AUDIO
    TITLE "4:cjc172_6367"
    INDEX 01 00:22:71
  TRACK 16 AUDIO
    TITLE "0:"
    INDEX 01 00:25:51
  TRACK 17 AUDIO
    TITLE "5:cjc172_6368"
    INDEX 01 00:25:61
  TRACK 18 AUDIO
    TITLE "0:"
    INDEX 01 00:30:72
  TRACK 19 AUDIO
    TITLE "3:cjc172_6369"
    INDEX 01 00:31:44
  TRACK 20 AUDIO
    TITLE "0:"
    INDEX 01 00:32:49
  TRACK 21 AUDIO
    TITLE "4:cjc172_6370"
    INDEX 01 00:32:61
  TRACK 22 AUDIO
    TITLE "0:"
    INDEX 01 00:35:28
  TRACK 23 AUDIO
    TITLE "5:cjc172_6371"
    INDEX 01 00:35:36
  TRACK 24 AUDIO
    TITLE "0:"
    INDEX 01 00:41:03
  TRACK 25 AUDIO
    TITLE "3:cjc172_6372"
    INDEX 01 00:41:52
  TRACK 26 AUDIO
    TITLE "0:"
    INDEX 01 00:42:69
  TRACK 27 AUDIO
    TITLE "4:cjc172_6373"
    INDEX 01 00:43:04
  TRACK 28 AUDIO
    TITLE "0:"
    INDEX 01 00:45:19
  TRACK 29 AUDIO
    TITLE "5:cjc172_6374"
    INDEX 01 00:45:27
  TRACK 30 AUDIO
    TITLE "0:"
    INDEX 01 00:51:72
  TRACK 31 AUDIO
    TITLE "3:cjc172_6375"
    INDEX 01 00:52:46
  TRACK 32 AUDIO
    TITLE "0:"
    INDEX 01 00:53:52
  TRACK 33 AUDIO
    TITLE "4:cjc172_6376"
    INDEX 01 00:53:63
  TRACK 34 AUDIO
    TITLE "0:"
    INDEX 01 00:57:18
  TRACK 35 AUDIO
    TITLE "5:cjc172_6377"
    INDEX 01 00:57:26
  TRACK 36 AUDIO
    TITLE "0:"
    INDEX 01 01:03:50
  TRACK 37 AUDIO
    TITLE "3:cjc172_6378"
    INDEX 01 01:04:22
  TRACK 38 AUDIO
    TITLE "0:"
    INDEX 01 01:05:31
  TRACK 39 AUDIO
    TITLE "4:cjc172_6379"
    INDEX 01 01:05:39
  TRACK 40 AUDIO
    TITLE "0:"
    INDEX 01 01:07:64
  TRACK 41 AUDIO
    TITLE "5:cjc172_6380"
    INDEX 01 01:07:73
  TRACK 42 AUDIO
    TITLE "0:"
    INDEX 01 01:13:03
  TRACK 43 AUDIO
    TITLE "3:cjc172_6381"
    INDEX 01 01:13:50
  TRACK 44 AUDIO
    TITLE "0:"
    INDEX 01 01:14:60
  TRACK 45 AUDIO
    TITLE "4:cjc172_6382"
    INDEX 01 01:14:69
  TRACK 46 AUDIO
    TITLE "0:"
    INDEX 01 01:17:21
  TRACK 47 AUDIO
    TITLE "5:cjc172_6383"
    INDEX 01 01:17:29
  TRACK 48 AUDIO
    TITLE "0:"
    INDEX 01 01:24:11
  TRACK 49 AUDIO
    TITLE "3:cjc172_6384"
    INDEX 01 01:24:58
  TRACK 50 AUDIO
    TITLE "0:"
    INDEX 01 01:26:00
  TRACK 51 AUDIO
    TITLE "4:cjc172_6385"
    INDEX 01 01:26:10
  TRACK 52 AUDIO
    TITLE "0:"
    INDEX 01 01:28:46
  TRACK 53 AUDIO
    TITLE "5:cjc172_6386"
    INDEX 01 01:28:54
  TRACK 54 AUDIO
    TITLE "0:"
    INDEX 01 01:35:58
  TRACK 55 AUDIO
    TITLE "3:cjc172_6387"
    INDEX 01 01:36:28
  TRACK 56 AUDIO
    TITLE "0:"
    INDEX 01 01:37:43
  TRACK 57 AUDIO
    TITLE "4:cjc172_6388"
    INDEX 01 01:37:55
  TRACK 58 AUDIO
    TITLE "0:"
    INDEX 01 01:40:49
  TRACK 59 AUDIO
    TITLE "5:cjc172_6389"
    INDEX 01 01:40:59
  TRACK 60 AUDIO
    TITLE "0:"
    INDEX 01 01:45:23
  TRACK 61 AUDIO
    TITLE "3:cjc172_6390"
    INDEX 01 01:45:70
  TRACK 62 AUDIO
    TITLE "0:"
    INDEX 01 01:47:16
  TRACK 63 AUDIO
    TITLE "4:cjc172_6391"
    INDEX 01 01:47:28
  TRACK 64 AUDIO
    TITLE "0:"
    INDEX 01 01:49:70
  TRACK 65 AUDIO
    TITLE "5:cjc172_6392"
    INDEX 01 01:50:06
  TRACK 66 AUDIO
    TITLE "0:"
    INDEX 01 01:55:45
  TRACK 67 AUDIO
    TITLE "3:cjc172_6393"
    INDEX 01 01:56:17
  TRACK 68 AUDIO
    TITLE "0:"
    INDEX 01 01:57:24
  TRACK 69 AUDIO
    TITLE "4:cjc172_6394"
    INDEX 01 01:57:36
  TRACK 70 AUDIO
    TITLE "0:"
    INDEX 01 02:00:32
  TRACK 71 AUDIO
    TITLE "5:cjc172_6395"
    INDEX 01 02:00:40
  TRACK 72 AUDIO
    TITLE "0:"
    INDEX 01 02:05:45
  TRACK 73 AUDIO
    TITLE "2:cjc172_6396"
    INDEX 01 02:06:17
  TRACK 74 AUDIO
    TITLE "0:"
    INDEX 01 02:07:25
  TRACK 75 AUDIO
    TITLE "3:cjc172_6397"
    INDEX 01 02:07:70
  TRACK 76 AUDIO
    TITLE "0:"
    INDEX 01 02:09:10
  TRACK 77 AUDIO
    TITLE "4:cjc172_6398"
    INDEX 01 02:09:18
  TRACK 78 AUDIO
    TITLE "0:"
    INDEX 01 02:10:54
  TRACK 79 AUDIO
    TITLE "5:cjc172_6399"
    INDEX 01 02:10:64
  TRACK 80 AUDIO
    TITLE "0:"
    INDEX 01 02:15:59
